<svg width="232" height="141" viewBox="0 0 232 141" fill="none" xmlns="http://www.w3.org/2000/svg">
<path d="M162.094 25.2758C161.401 12.1996 151.135 1.58278 138.098 0.146103C137.628 0.0974021 137.183 0.048701 136.713 0.0243505C136.268 0 135.798 0 135.353 0C134.882 0 134.437 0 133.967 0.0243505C129.415 0.267856 125.136 1.60714 121.45 3.82303C120.733 4.26134 120.015 4.724 119.323 5.23536C118.284 5.99023 117.319 6.81815 116.404 7.71912C115.81 8.30353 115.216 8.93664 114.672 9.59411C113.856 10.5681 113.113 11.5909 112.446 12.6866C112.223 13.0275 112.025 13.3441 111.852 13.685C111.604 14.099 111.382 14.5373 111.184 14.9756C110.689 16.0713 110.244 17.2158 109.922 18.3846C109.056 21.4528 108.611 24.3992 108.586 27.2239C108.364 41.542 118.135 53.4494 132.26 69.2042C133.72 70.8357 136.317 70.86 137.802 69.2285C153.955 51.7449 161.599 41.3228 162.069 28.0031C162.119 27.6378 162.119 27.2726 162.119 26.9073V26.3473C162.119 25.982 162.119 25.6411 162.094 25.2758ZM135.056 43.5874C125.556 43.5874 117.838 35.9901 117.838 26.6395C117.838 17.2889 125.556 9.69151 135.056 9.69151C144.555 9.69151 152.248 17.2889 152.248 26.6395C152.248 35.9901 144.53 43.5874 135.056 43.5874Z" fill="#FCFCFC"/>
<path d="M231.458 109.831C231.458 109.344 231.384 108.906 231.31 108.443C231.31 108.297 231.285 108.127 231.26 107.981C231.236 107.835 231.211 107.664 231.186 107.518C229.331 92.859 216.739 81.4873 201.526 81.4873H190.988C186.757 81.4873 183.319 78.1026 183.319 73.9387C183.319 69.7747 186.757 66.39 190.988 66.39H217.58C223.74 66.39 228.712 61.4955 228.712 55.4323C228.712 49.369 223.74 44.4745 217.58 44.4745H190.988C174.488 44.4745 161.055 57.6969 161.055 73.9387C161.055 90.1805 174.488 103.403 190.988 103.403H201.526C205.508 103.403 208.749 106.544 209.095 110.513C208.724 115.286 204.717 119.06 199.769 119.06H155.563C150.393 119.06 146.163 114.921 146.163 109.807V92.4207C146.163 86.3574 141.191 81.463 135.031 81.463C128.871 81.463 123.899 86.3574 123.899 92.4207V109.807C123.899 114.896 119.694 119.06 114.499 119.06C109.304 119.06 105.099 114.921 105.099 109.807V56.5037C105.099 50.4404 100.126 45.5459 93.9668 45.5459C87.8071 45.5459 82.8349 50.4404 82.8349 56.5037V109.807C82.8349 114.896 78.6295 119.06 73.4346 119.06C68.2397 119.06 64.0343 114.921 64.0343 109.807V56.5037C64.0343 50.4404 59.0621 45.5459 52.9024 45.5459C46.7428 45.5459 41.7705 50.4404 41.7705 56.5037V109.807C41.7705 114.896 37.5651 119.06 32.3702 119.06C27.1753 119.06 22.9699 114.921 22.9699 109.807V56.5037C22.9699 50.4404 17.9977 45.5459 11.838 45.5459C5.67839 45.5459 0.755615 50.4891 0.755615 56.528V109.831C0.755615 127.023 14.955 141 32.4197 141C40.2615 141 47.4107 138.175 52.9519 133.524C58.4931 138.175 65.6423 141 73.4841 141C81.3259 141 88.475 138.175 94.0162 133.524C99.5575 138.175 106.707 141 114.548 141C122.39 141 129.539 138.175 135.081 133.524C140.622 138.175 147.771 141 155.613 141H199.819C200.215 141 200.586 140.951 200.981 140.951C201.179 140.951 201.353 141 201.55 141C218.05 141 231.483 127.656 231.483 111.244C231.483 111 231.458 110.781 231.458 110.537C231.458 110.294 231.483 110.075 231.483 109.831H231.458Z" fill="#FCFCFC"/>
<path d="M135.056 35.6492C130.009 35.6492 125.903 31.607 125.903 26.6395C125.903 21.672 130.009 17.6298 135.056 17.6298C140.102 17.6298 144.209 21.672 144.209 26.6395C144.209 31.607 140.102 35.6492 135.056 35.6492Z" fill="#FCFCFC"/>
</svg>
