<svg width="69" height="69" viewBox="0 0 69 69" fill="none" xmlns="http://www.w3.org/2000/svg">
<path d="M66.8807 30.2118L38.3336 1.62928C37.7906 1.10885 37.1503 0.700888 36.4495 0.428815C35.0595 -0.142938 33.5003 -0.142938 32.1103 0.428815C31.4095 0.700888 30.7692 1.10885 30.2262 1.62928L1.67909 30.2118C1.14676 30.7448 0.724483 31.3776 0.436384 32.074C0.148285 32.7703 0 33.5167 0 34.2705C0 35.7928 0.603988 37.2528 1.67909 38.3292C2.7542 39.4057 4.21236 40.0104 5.73278 40.0104C7.25321 40.0104 8.71137 39.4057 9.78647 38.3292L28.5705 19.4648L28.5705 62.853C28.5705 64.3691 29.172 65.8232 30.2427 66.8952C31.3134 67.9673 32.7657 68.5695 34.2799 68.5695C35.7941 68.5695 37.2463 67.9673 38.3171 66.8952C39.3878 65.8232 39.9893 64.3691 39.9893 62.853V19.4648L58.7733 38.3292C59.3041 38.865 59.9355 39.2903 60.6313 39.5805C61.327 39.8707 62.0733 40.0202 62.827 40.0202C63.5807 40.0202 64.327 39.8707 65.0227 39.5805C65.7185 39.2903 66.3499 38.865 66.8807 38.3292C67.4158 37.7978 67.8406 37.1656 68.1304 36.4689C68.4203 35.7723 68.5695 35.0252 68.5695 34.2705C68.5695 33.5159 68.4203 32.7687 68.1304 32.0721C67.8406 31.3755 67.4158 30.7432 66.8807 30.2118Z" fill="currentColor"/>
</svg>
