<svg width="62" height="62" viewBox="0 0 62 62" fill="none" xmlns="http://www.w3.org/2000/svg">
<path d="M50.6592 57.0263L61.1388 18.0125C61.3181 17.282 61.3512 16.5236 61.2364 15.7806C61.0366 14.2909 60.257 12.9407 59.0668 12.0228C58.4808 11.5518 57.8074 11.2013 57.0852 10.9913L18.0584 0.560035C17.3307 0.365516 16.5715 0.316197 15.8244 0.414894C15.0772 0.51359 14.3567 0.758369 13.7039 1.13526C12.3856 1.89641 11.4232 3.14946 11.0285 4.61875C10.6338 6.08804 10.8392 7.65321 11.5994 8.96994C12.3596 10.2867 13.6124 11.2471 15.0822 11.6399L40.8113 18.4751L3.23597 40.1693C1.92298 40.9273 0.964535 42.1753 0.571472 43.6386C0.17841 45.1019 0.382936 46.6607 1.14005 47.972C1.89717 49.2834 3.14485 50.2399 4.60864 50.6311C6.07243 51.0224 7.6324 50.8163 8.9454 50.0583L46.5207 28.3641L39.5756 54.0638C39.377 54.7914 39.3244 55.5509 39.421 56.2985C39.5175 57.0461 39.7612 57.7671 40.1381 58.4199C40.5149 59.0726 41.0175 59.6442 41.6167 60.1016C42.2159 60.559 42.8999 60.8932 43.6293 61.085C44.3571 61.2827 45.117 61.3344 45.8652 61.2372C46.6134 61.1399 47.3351 60.8955 47.9887 60.5182C48.6422 60.1409 49.2147 59.6381 49.673 59.0387C50.1314 58.4394 50.4666 57.7554 50.6592 57.0263Z" fill="currentColor"/>
</svg>
