<svg width="141" height="170" viewBox="0 0 141 170" fill="none" xmlns="http://www.w3.org/2000/svg">
<path d="M22.0128 24.2935H88.8151C89.9608 24.2935 90.8982 23.3572 90.8982 22.2128C90.8982 21.0685 89.9608 20.1321 88.8151 20.1321H22.0128C20.867 20.1321 19.9297 21.0685 19.9297 22.2128C19.9297 23.3572 20.867 24.2935 22.0128 24.2935Z" fill="#16A2FF"/>
<path d="M22.0128 77.0078H22.8114C23.9571 77.0078 24.8945 76.0715 24.8945 74.9271C24.8945 73.7827 23.9571 72.8464 22.8114 72.8464H22.0128C20.867 72.8464 19.9297 73.7827 19.9297 74.9271C19.9297 76.0715 20.867 77.0078 22.0128 77.0078Z" fill="#16A2FF"/>
<path d="M36.9426 72.846H30.8666C29.7209 72.846 28.7835 73.7824 28.7835 74.9267C28.7835 76.0711 29.7209 77.0074 30.8666 77.0074H36.9426C38.0883 77.0074 39.0257 76.0711 39.0257 74.9267C39.0257 73.7824 38.0883 72.846 36.9426 72.846Z" fill="#16A2FF"/>
<path d="M45.1366 77.0078H88.8151C89.9608 77.0078 90.8982 76.0715 90.8982 74.9271C90.8982 73.7827 89.9608 72.8464 88.8151 72.8464H45.1366C43.9909 72.8464 43.0535 73.7827 43.0535 74.9271C43.0535 76.0715 43.9909 77.0078 45.1366 77.0078Z" fill="#16A2FF"/>
<path d="M22.0128 60.0142H22.8114C23.9571 60.0142 24.8945 59.0778 24.8945 57.9335C24.8945 56.7891 23.9571 55.8528 22.8114 55.8528H22.0128C20.867 55.8528 19.9297 56.7891 19.9297 57.9335C19.9297 59.0778 20.867 60.0142 22.0128 60.0142Z" fill="#16A2FF"/>
<path d="M36.9426 55.8528H30.8666C29.7209 55.8528 28.7835 56.7891 28.7835 57.9335C28.7835 59.0778 29.7209 60.0142 30.8666 60.0142H36.9426C38.0883 60.0142 39.0257 59.0778 39.0257 57.9335C39.0257 56.7891 38.0883 55.8528 36.9426 55.8528Z" fill="#16A2FF"/>
<path d="M88.8151 55.8528H45.1366C43.9909 55.8528 43.0535 56.7891 43.0535 57.9335C43.0535 59.0778 43.9909 60.0142 45.1366 60.0142H88.8151C89.9608 60.0142 90.8982 59.0778 90.8982 57.9335C90.8982 56.7891 89.9608 55.8528 88.8151 55.8528Z" fill="#16A2FF"/>
<path d="M22.0128 97.8158H22.8114C23.9571 97.8158 24.8945 96.8795 24.8945 95.7351C24.8945 94.5907 23.9571 93.6544 22.8114 93.6544H22.0128C20.867 93.6544 19.9297 94.5907 19.9297 95.7351C19.9297 96.8795 20.867 97.8158 22.0128 97.8158Z" fill="#16A2FF"/>
<path d="M36.9426 93.6544H30.8666C29.7209 93.6544 28.7835 94.5907 28.7835 95.7351C28.7835 96.8795 29.7209 97.8158 30.8666 97.8158H36.9426C38.0883 97.8158 39.0257 96.8795 39.0257 95.7351C39.0257 94.5907 38.0883 93.6544 36.9426 93.6544Z" fill="#16A2FF"/>
<path d="M30.9013 110.266V108.532C30.9013 107.388 29.9639 106.451 28.8181 106.451C27.6724 106.451 26.735 107.388 26.735 108.532V110.266C22.9159 111.202 20.2425 114.601 20.3117 118.52C20.3117 123.237 24.1308 127.051 28.8528 127.051C31.2833 127.051 33.2276 128.993 33.2622 131.386C33.2622 133.814 31.3179 135.756 28.9223 135.791H28.8528C26.4572 135.756 24.5474 133.814 24.5128 131.421C24.5128 130.276 23.5405 129.34 22.3948 129.34C21.2491 129.34 20.3463 130.276 20.3117 131.421C20.2771 135.34 22.9156 138.773 26.735 139.675V141.686C26.735 142.831 27.6724 143.767 28.8181 143.767C29.9639 143.767 30.9013 142.831 30.9013 141.686V139.675C34.7204 138.773 37.3938 135.34 37.3938 131.421C37.3938 126.704 33.5747 122.89 28.8528 122.89C26.4222 122.89 24.4779 120.913 24.4779 118.52C24.4779 116.127 26.4568 114.15 28.8528 114.15C31.2487 114.15 33.2276 116.092 33.2276 118.52C33.2276 119.664 34.1304 120.601 35.2761 120.601C36.4218 120.601 37.3592 119.699 37.3592 118.554V118.485C37.3938 114.601 34.7204 111.168 30.9013 110.266Z" fill="#16A2FF"/>
<path d="M22.0128 45.4486H88.8151C89.9608 45.4486 90.8982 44.5123 90.8982 43.3679C90.8982 42.2235 89.9608 41.2872 88.8151 41.2872H22.0128C20.867 41.2872 19.9297 42.2235 19.9297 43.3679C19.9297 44.5123 20.867 45.4486 22.0128 45.4486Z" fill="#16A2FF"/>
<path d="M22.0128 35.0444H88.8151C89.9608 35.0444 90.8982 34.1081 90.8982 32.9637C90.8982 31.8193 89.9608 30.883 88.8151 30.883H22.0128C20.867 30.883 19.9297 31.8193 19.9297 32.9637C19.9297 34.1081 20.867 35.0444 22.0128 35.0444Z" fill="#16A2FF"/>
<path d="M2.08311 29.8772C0.937398 29.8772 0 30.8135 0 31.9579V82.7992C0 83.9436 0.937398 84.8799 2.08311 84.8799C3.22882 84.8799 4.16621 83.9436 4.16621 82.7992V31.9579C4.16621 30.8135 3.22882 29.8772 2.08311 29.8772Z" fill="#16A2FF"/>
<path d="M2.08311 22.629C0.937398 22.629 0 23.5653 0 24.7097V25.8195C0 26.9639 0.937398 27.9002 2.08311 27.9002C3.22882 27.9002 4.16621 26.9639 4.16621 25.8195V24.7097C4.16621 23.5304 3.22882 22.629 2.08311 22.629Z" fill="#16A2FF"/>
<path d="M113.189 97.8158H80.8989C77.0798 97.8158 73.9548 100.902 73.9548 104.752V147.409C73.9548 151.223 77.0448 154.345 80.8989 154.345H113.189C117.008 154.345 120.133 151.258 120.133 147.409V104.752C120.133 100.902 117.043 97.8158 113.189 97.8158ZM89.3009 114.116H92.1826C93.3284 114.116 94.2658 115.052 94.2658 116.196C94.2658 117.341 93.3284 118.277 92.1826 118.277H89.3009C88.1552 118.277 87.2178 117.341 87.2178 116.196C87.2178 115.052 88.1552 114.116 89.3009 114.116ZM80.8986 150.53C79.3708 150.426 78.1905 149.212 78.121 147.686V104.891C78.1905 103.365 79.3708 102.116 80.8986 101.978V150.53ZM102.148 124.867H89.3358C88.1901 124.867 87.2527 123.93 87.2527 122.786C87.2527 121.642 88.1901 120.705 89.3358 120.705H102.148C103.293 120.705 104.231 121.642 104.231 122.786C104.231 123.93 103.293 124.867 102.148 124.867ZM110.272 124.867H108.05C106.904 124.867 105.967 123.93 105.967 122.786C105.967 121.642 106.904 120.705 108.05 120.705H110.272C111.418 120.705 112.355 121.642 112.355 122.786C112.355 123.93 111.418 124.867 110.272 124.867ZM110.272 118.277H98.0852C96.9395 118.277 96.0021 117.341 96.0021 116.196C96.0021 115.052 96.9395 114.116 98.0852 114.116H110.272C111.418 114.116 112.355 115.052 112.355 116.196C112.355 117.341 111.418 118.277 110.272 118.277Z" fill="#16A2FF"/>
<path d="M102.426 82.9381V2.09815C102.46 0.988332 101.627 0.0520175 100.516 0.0174532C100.03 -0.017111 99.5438 0.156052 99.1617 0.468157C93.3633 5.15007 85.0651 5.15007 79.267 0.468157C78.5033 -0.156052 77.4268 -0.156052 76.6632 0.468157C70.8301 5.15007 62.5319 5.15007 56.7335 0.468157C56.6989 0.433593 56.664 0.433593 56.664 0.398687C55.9003 -0.156052 54.8584 -0.121488 54.1293 0.468157C48.2962 5.15007 39.9981 5.15007 34.1996 0.468157C34.1301 0.398687 34.0609 0.364122 33.9913 0.329558C33.2276 -0.121146 32.2899 -0.0520175 31.5957 0.468157C25.7627 5.15007 17.4645 5.15007 11.6661 0.468157C11.0758 -0.0174532 10.2079 -0.121488 9.51343 0.225523C8.81895 0.572192 8.36772 1.30078 8.40232 2.09815V157.501C8.36772 158.611 9.23557 159.547 10.3467 159.581C10.8328 159.581 11.319 159.443 11.7007 159.131C17.4991 154.449 25.7973 154.449 31.6303 159.131C31.6999 159.165 31.7345 159.2 31.8041 159.269C32.5677 159.755 33.5401 159.72 34.2346 159.165C40.0676 154.483 48.3658 154.483 54.1988 159.165C54.9625 159.79 56.039 159.79 56.8027 159.165L63.4344 153.894C78.6767 172.586 106.175 175.43 124.889 160.206C135.097 151.917 141.035 139.467 141 126.323C140.93 103.989 124.091 85.5044 102.426 82.9381ZM98.4326 165.755H97.8077C76.4894 166.101 58.5737 149.247 57.6709 127.953C57.4972 124.034 57.9138 120.081 58.9208 116.266C59.1986 115.226 58.6429 114.15 57.6013 113.804L57.4972 113.769C56.4207 113.422 55.275 113.977 54.9279 115.052C54.9279 115.087 54.8933 115.156 54.8933 115.191C51.7337 127.26 53.8864 140.092 60.8305 150.461L55.3445 154.865C48.5741 150.253 39.651 150.287 32.9152 154.9C26.735 150.738 18.7493 150.322 12.4997 153.686V5.91288C18.7493 9.27691 26.735 8.86077 32.9152 4.66446C39.7202 9.31147 48.6436 9.31147 55.4487 4.66446C62.2191 9.31147 71.1422 9.31147 77.9127 4.66446C84.0582 8.86077 92.0093 9.27691 98.2589 5.91288V82.6257H97.2174C86.5237 82.6257 76.1766 86.5444 68.1909 93.6541H45.2058C44.0601 93.6541 43.0878 94.5209 43.0532 95.6656C43.0186 96.81 43.921 97.7812 45.0671 97.8158H64.0939C63.1216 98.9602 62.1842 100.139 61.3163 101.388C60.6914 102.324 60.8997 103.573 61.8371 104.232C61.9759 104.336 62.1496 104.44 62.3579 104.474L62.462 104.509C63.3299 104.786 64.2676 104.474 64.7884 103.746C72.4963 92.6483 85.3776 86.2672 98.8839 86.822C119.473 87.6543 136.069 104.405 136.764 124.97C137.458 146.784 120.306 165.061 98.4326 165.755Z" fill="#16A2FF"/>
</svg>
