<svg width="116" height="153" viewBox="0 0 116 153" fill="none" xmlns="http://www.w3.org/2000/svg">
<path d="M58 86.625C69.4188 86.625 78.7143 77.3696 78.7143 66C78.7143 54.6304 69.4188 45.375 58 45.375C46.5812 45.375 37.2857 54.6304 37.2857 66C37.2857 77.3696 46.5812 86.625 58 86.625ZM58 53.625C64.8513 53.625 70.4286 59.1782 70.4286 66C70.4286 72.8218 64.8513 78.375 58 78.375C51.1487 78.375 45.5714 72.8218 45.5714 66C45.5714 59.1782 51.1487 53.625 58 53.625ZM49.7143 66C49.7143 61.4522 53.4325 57.75 58 57.75C62.5675 57.75 66.2857 61.4522 66.2857 66C66.2857 70.5478 62.5675 74.25 58 74.25C53.4325 74.25 49.7143 70.5478 49.7143 66ZM107.714 0H8.28572C3.71823 0 0 3.7022 0 8.25V20.625C0 25.1728 3.71823 28.875 8.28572 28.875V49.5C8.28572 76.7976 30.5895 99 58 99C85.4158 99 107.714 76.7976 107.714 49.5V28.875C112.282 28.875 116 25.1728 116 20.625V8.25C116 3.7022 112.282 0 107.714 0ZM99.4286 49.5C99.4286 72.2436 80.8421 90.75 58 90.75C35.1579 90.75 16.5714 72.2436 16.5714 49.5V28.875H99.4286V49.5ZM103.571 20.625H8.28572V8.25H107.714L107.719 20.625H103.571Z" fill="#16A2FF"/>
<path d="M72.9692 127.082C71.0521 129.13 68.734 130.765 66.158 131.886C63.582 133.007 60.8049 133.59 57.9936 133.6C55.1828 133.609 52.3999 133.045 49.8158 131.942C47.2321 130.839 44.9019 129.22 42.9705 127.185M82 139.57C78.9325 142.847 75.2236 145.463 71.1021 147.257C66.9805 149.051 62.5305 149.984 58.0327 150C53.5349 150.015 49.084 149.112 44.9496 147.347C40.8156 145.582 37.0907 142.996 34 139.74M57.922 109C60.195 109 62.0375 110.836 62.0375 113.1C62.0375 115.364 60.195 117.2 57.922 117.2C55.6491 117.2 53.8066 115.364 53.8066 113.1C53.8066 110.836 55.6491 109 57.922 109Z" stroke="#16A2FF" stroke-width="6" stroke-linecap="round" stroke-linejoin="round"/>
</svg>
