<svg width="184" height="118" viewBox="0 0 184 118" fill="none" xmlns="http://www.w3.org/2000/svg">
<path d="M135.002 17.8148H130.734V22.062H135.002V17.8148Z" fill="#16A2FF"/>
<path d="M142.921 17.8148H138.653V22.062H142.921V17.8148Z" fill="#16A2FF"/>
<path d="M150.84 17.8148H146.571V22.062H150.84V17.8148Z" fill="#16A2FF"/>
<path d="M135.002 25.8295H130.734V30.0767H135.002V25.8295Z" fill="#16A2FF"/>
<path d="M142.921 25.8295H138.653V30.0767H142.921V25.8295Z" fill="#16A2FF"/>
<path d="M150.84 25.8295H146.571V30.0767H150.84V25.8295Z" fill="#16A2FF"/>
<path d="M135.002 33.8434H130.734V38.0907H135.002V33.8434Z" fill="#16A2FF"/>
<path d="M142.921 33.8434H138.653V38.0907H142.921V33.8434Z" fill="#16A2FF"/>
<path d="M150.84 33.8434H146.571V38.0907H150.84V33.8434Z" fill="#16A2FF"/>
<path d="M135.002 41.8574H130.734V46.1046H135.002V41.8574Z" fill="#16A2FF"/>
<path d="M142.921 41.8574H138.653V46.1046H142.921V41.8574Z" fill="#16A2FF"/>
<path d="M150.84 41.8574H146.571V46.1046H150.84V41.8574Z" fill="#16A2FF"/>
<path d="M135.002 49.8713H130.734V54.1185H135.002V49.8713Z" fill="#16A2FF"/>
<path d="M142.921 49.8713H138.653V54.1185H142.921V49.8713Z" fill="#16A2FF"/>
<path d="M150.84 49.8713H146.571V54.1185H150.84V49.8713Z" fill="#16A2FF"/>
<path d="M135.002 57.886H130.734V62.1333H135.002V57.886Z" fill="#16A2FF"/>
<path d="M142.921 57.886H138.653V62.1333H142.921V57.886Z" fill="#16A2FF"/>
<path d="M150.84 57.886H146.571V62.1333H150.84V57.886Z" fill="#16A2FF"/>
<path d="M123.739 10.7524V62.4715C124.235 62.6904 124.715 62.9465 125.175 63.2405C125.656 63.5479 126.109 63.891 126.531 64.2664V13.5304H155.043V50.7826C155.352 50.3653 155.674 49.9598 156.011 49.571C156.589 48.9024 157.198 48.2851 157.835 47.7216V10.7524H123.739Z" fill="#16A2FF"/>
<path d="M157.834 82.6534V72.2708C157.249 71.9642 156.696 71.6275 156.179 71.2608C155.777 70.9754 155.398 70.6728 155.043 70.355V82.6534H157.835H157.834Z" fill="#16A2FF"/>
<path d="M83.2979 70.8672C82.869 69.8571 82.2542 68.9498 81.4719 68.1714C80.6896 67.3929 79.7786 66.782 78.7627 66.3544C77.9645 66.0185 77.1298 65.8083 76.2704 65.7261C75.7065 64.4323 74.8384 63.2745 73.7328 62.3664C72.9425 61.7168 72.0554 61.2102 71.0959 60.86C70.7838 60.7462 70.4669 60.6506 70.146 60.5724C69.4447 60.4009 68.7243 60.3147 67.9936 60.3147C67.7799 60.3147 67.5671 60.3218 67.355 60.3376C66.6434 60.3866 65.9452 60.5194 65.2709 60.732C64.5005 60.9746 63.7611 61.3208 63.0756 61.7658C62.8056 61.9412 62.5459 62.1301 62.2973 62.3316C61.8144 62.7228 61.3744 63.1623 60.9844 63.6412C60.1496 63.3741 59.2736 63.2358 58.3825 63.2358C57.4413 63.2358 56.5152 63.3891 55.6304 63.691C54.7758 63.9826 53.976 64.4078 53.254 64.9539C52.5408 65.4929 51.9205 66.1379 51.4106 66.8705C51.1255 67.2791 50.8784 67.7098 50.6719 68.1595C49.5084 68.6416 48.4695 69.4114 47.6721 70.3969C47.1423 71.0513 46.7293 71.784 46.445 72.5727C46.1503 73.3891 46.0002 74.2458 46.0002 75.1191C46.0002 76.1355 46.2011 77.1226 46.5967 78.0528C46.8818 78.723 47.2583 79.3427 47.7205 79.9014C47.877 80.0903 48.043 80.2721 48.2185 80.4468C48.9127 81.1383 49.7228 81.6812 50.6243 82.0606C51.5591 82.4542 52.5511 82.6533 53.5725 82.6533H75.4436C76.5937 82.6533 77.7104 82.4289 78.7627 81.9863C79.7786 81.5587 80.6896 80.947 81.4719 80.1686C81.5601 80.0816 81.6459 79.9923 81.7292 79.9014C82.3901 79.1854 82.9174 78.3698 83.2979 77.4727C83.7435 76.4256 83.969 75.3144 83.969 74.17C83.969 73.0256 83.7435 71.9144 83.2979 70.8672ZM78.0567 79.9014C77.26 80.261 76.3753 80.4618 75.4436 80.4618H53.5725C52.7116 80.4618 51.8982 80.2602 51.1771 79.9014C49.4139 79.0265 48.2034 77.2135 48.2034 75.1191C48.2034 72.5838 49.9778 70.4609 52.3581 69.914C53.1222 67.321 55.5303 65.4273 58.3825 65.4273C59.6461 65.4273 60.8232 65.7996 61.808 66.439C62.8898 64.117 65.2527 62.5063 67.9936 62.5063C71.2889 62.5063 74.0378 64.833 74.6708 67.9256C74.9242 67.8948 75.1823 67.8789 75.4436 67.8789C78.9359 67.8789 81.7666 70.6957 81.7666 74.17C81.7666 76.718 80.2448 78.9119 78.0567 79.9014Z" fill="#16A2FF"/>
<path d="M81.464 42.5971H77.1957V46.8443H81.464V42.5971Z" fill="#16A2FF"/>
<path d="M91.3896 42.624H87.1214V46.8712H91.3896V42.624Z" fill="#16A2FF"/>
<path d="M101.315 42.6509H97.047V46.8981H101.315V42.6509Z" fill="#16A2FF"/>
<path d="M110.274 42.6777H106.006V46.925H110.274V42.6777Z" fill="#16A2FF"/>
<path d="M81.464 49.8318H77.1957V54.079H81.464V49.8318Z" fill="#16A2FF"/>
<path d="M91.3896 49.8579H87.1214V54.1051H91.3896V49.8579Z" fill="#16A2FF"/>
<path d="M101.315 49.8847H97.047V54.132H101.315V49.8847Z" fill="#16A2FF"/>
<path d="M110.274 49.9116H106.006V54.1588H110.274V49.9116Z" fill="#16A2FF"/>
<path d="M81.464 57.0657H77.1957V61.3129H81.464V57.0657Z" fill="#16A2FF"/>
<path d="M91.3896 57.0925H87.1214V61.3398H91.3896V57.0925Z" fill="#16A2FF"/>
<path d="M101.315 57.1194H97.047V61.3666H101.315V57.1194Z" fill="#16A2FF"/>
<path d="M110.274 57.1463H106.006V61.3935H110.274V57.1463Z" fill="#16A2FF"/>
<path d="M91.3896 64.3264H87.1214V68.5736H91.3896V64.3264Z" fill="#16A2FF"/>
<path d="M101.315 64.3533H97.047V68.6005H101.315V64.3533Z" fill="#16A2FF"/>
<path d="M91.3896 71.5603H87.1214V75.8075H91.3896V71.5603Z" fill="#16A2FF"/>
<path d="M101.315 71.5872H97.047V75.8344H101.315V71.5872Z" fill="#16A2FF"/>
<path d="M118.291 61.5856C118.663 61.5468 119.039 61.5271 119.418 61.5271C119.978 61.5271 120.534 61.5705 121.082 61.6567V36.8451H67.3558V60.6538C67.5679 60.6387 67.7807 60.6316 67.9944 60.6316C68.7251 60.6316 69.4455 60.7178 70.1468 60.8893V39.6231H118.291V61.5864V61.5856Z" fill="#16A2FF"/>
<path d="M146.71 66.7172C144.938 64.9539 142.583 63.9834 140.077 63.9834C138.032 63.9834 136.056 64.6449 134.436 65.8597C133.638 65.6218 132.811 65.5024 131.968 65.5024C130.719 65.5024 129.501 65.7672 128.382 66.2777C127.864 65.4803 127.241 64.7556 126.53 64.1233C126.108 63.7479 125.656 63.4049 125.175 63.0975C124.714 62.8035 124.235 62.5466 123.739 62.3285C122.892 61.9539 121.999 61.6923 121.082 61.5484C120.534 61.4631 119.978 61.4196 119.417 61.4196C119.038 61.4196 118.662 61.4393 118.29 61.4781C117.247 61.5863 116.234 61.8464 115.264 62.255C113.993 62.7892 112.852 63.5551 111.872 64.5295C110.893 65.504 110.124 66.6389 109.587 67.9034C109.03 69.213 108.748 70.604 108.748 72.0369C108.748 73.4697 109.03 74.8599 109.587 76.1695C110.124 77.434 110.893 78.5689 111.872 79.5442C111.995 79.6667 112.121 79.7852 112.249 79.9014C113.14 80.7068 114.153 81.3509 115.264 81.8188C116.58 82.3728 117.977 82.6533 119.417 82.6533H140.077C142.583 82.6533 144.938 81.6828 146.71 79.9196C146.717 79.9133 146.722 79.9077 146.728 79.9014C148.489 78.1406 149.458 75.8028 149.458 73.318C149.458 70.8332 148.482 68.4804 146.71 66.7172ZM141.807 79.9014C141.254 80.0453 140.674 80.1219 140.077 80.1219H119.417C118.767 80.1219 118.136 80.0461 117.53 79.9014C113.956 79.0526 111.292 75.8486 111.292 72.0369C111.292 67.5786 114.937 63.951 119.417 63.951C122.524 63.951 125.401 65.753 126.747 68.542L127.381 69.8563L128.6 69.047C129.598 68.384 130.762 68.0331 131.968 68.0331C132.745 68.0331 133.503 68.1777 134.218 68.4622L134.948 68.7523L135.535 68.2322C136.788 67.1242 138.4 66.514 140.077 66.514C143.847 66.514 146.914 69.5663 146.914 73.318C146.914 76.4754 144.742 79.1372 141.807 79.9014Z" fill="#16A2FF"/>
<path d="M182.246 82.6534H1.75369C0.785507 82.6534 0 82.0369 0 81.2774C0 80.5179 0.784713 79.9014 1.75369 79.9014H182.246C183.215 79.9014 184 80.5179 184 81.2774C184 82.0369 183.215 82.6534 182.246 82.6534Z" fill="#16A2FF"/>
<path d="M182.246 118H1.75369C0.785507 118 0 117.384 0 116.624C0 115.865 0.784713 115.248 1.75369 115.248H182.246C183.215 115.248 184 115.865 184 116.624C184 117.384 183.215 118 182.246 118Z" fill="#16A2FF"/>
<path d="M45.1464 6.41668H40.8781V10.6639H45.1464V6.41668Z" fill="#16A2FF"/>
<path d="M52.4796 6.41668H48.2114V10.6639H52.4796V6.41668Z" fill="#16A2FF"/>
<path d="M59.8129 6.41668H55.5446V10.6639H59.8129V6.41668Z" fill="#16A2FF"/>
<path d="M45.1464 16.0334H40.8781V20.2806H45.1464V16.0334Z" fill="#16A2FF"/>
<path d="M52.4796 16.0334H48.2114V20.2806H52.4796V16.0334Z" fill="#16A2FF"/>
<path d="M59.8129 16.0334H55.5446V20.2806H59.8129V16.0334Z" fill="#16A2FF"/>
<path d="M45.1464 25.6501H40.8781V29.8973H45.1464V25.6501Z" fill="#16A2FF"/>
<path d="M52.4796 25.6501H48.2114V29.8973H52.4796V25.6501Z" fill="#16A2FF"/>
<path d="M59.8129 25.6501H55.5446V29.8973H59.8129V25.6501Z" fill="#16A2FF"/>
<path d="M45.1464 35.2676H40.8781V39.5148H45.1464V35.2676Z" fill="#16A2FF"/>
<path d="M52.4796 35.2676H48.2114V39.5148H52.4796V35.2676Z" fill="#16A2FF"/>
<path d="M59.8129 35.2676H55.5446V39.5148H59.8129V35.2676Z" fill="#16A2FF"/>
<path d="M45.1464 44.8843H40.8781V49.1316H45.1464V44.8843Z" fill="#16A2FF"/>
<path d="M52.4796 44.8843H48.2114V49.1316H52.4796V44.8843Z" fill="#16A2FF"/>
<path d="M59.8129 44.8843H55.5446V49.1316H59.8129V44.8843Z" fill="#16A2FF"/>
<path d="M45.1464 54.5011H40.8781V58.7483H45.1464V54.5011Z" fill="#16A2FF"/>
<path d="M52.4796 54.5011H48.2114V58.7483H52.4796V54.5011Z" fill="#16A2FF"/>
<path d="M59.8129 54.5011H55.5446V58.7483H59.8129V54.5011Z" fill="#16A2FF"/>
<path d="M38.3937 82.6534V2.95899H62.2981V62.5055C62.5467 62.304 62.8064 62.1151 63.0764 61.9396C63.7627 61.4947 64.5005 61.1477 65.2717 60.9051V0H35.4201V82.6534H38.3937Z" fill="#16A2FF"/>
<path d="M32.9381 53.7985C32.0922 51.6322 30.8524 49.552 29.3513 47.7833C27.7691 45.9189 25.9583 44.4394 23.9687 43.3875C21.8099 42.2446 19.5463 41.6661 17.2391 41.6661C14.9318 41.6661 12.6587 42.2446 10.4792 43.3851C8.46743 44.4378 6.63114 45.9149 5.02121 47.7762C3.48991 49.5481 2.2215 51.6274 1.35577 53.7905C0.468604 56.0058 0 58.3199 0 60.4831C0 64.7658 1.79737 68.3057 5.19832 70.7202C6.74233 71.8164 8.58815 72.6581 10.6826 73.2224C12.4569 73.6997 14.3798 73.97 16.4075 74.0277C16.6831 74.0356 16.9603 74.0396 17.2391 74.0396C17.5178 74.0396 17.7768 74.0356 18.042 74.0285C20.0777 73.9724 21.999 73.7021 23.7638 73.2216C25.8359 72.6573 27.6571 71.814 29.1765 70.7146C32.4997 68.3097 34.2557 64.7722 34.2557 60.4831C34.2557 58.3191 33.7998 56.0074 32.9381 53.7985ZM18.0031 72.0448C17.7482 72.0527 17.4932 72.0566 17.2391 72.0566C16.9849 72.0566 16.7093 72.0527 16.4464 72.044C12.4323 71.9246 8.8717 70.8917 6.35554 69.1055C3.46052 67.0507 1.99276 64.1494 1.99276 60.4831C1.99276 52.858 8.79386 43.6491 17.2391 43.6491C25.6842 43.6491 32.263 52.6983 32.263 60.4831C32.263 68.7175 25.0361 71.8369 18.0031 72.0448Z" fill="#16A2FF"/>
<path d="M17.7569 60.3835C17.6791 56.7701 17.5981 53.0342 17.5234 49.3663C17.5202 49.2043 17.3876 49.0747 17.2248 49.0747C17.0619 49.0747 16.9293 49.2043 16.9261 49.3663C16.8515 53.0342 16.7712 56.7701 16.6926 60.3835C16.5528 66.8491 16.4083 73.5345 16.2915 80.2531C16.2875 80.4973 16.3805 80.7281 16.5536 80.9012C16.7284 81.0766 16.9619 81.1723 17.2121 81.1723C17.2152 81.1723 17.2176 81.1723 17.2208 81.1723H17.2303C17.2303 81.1723 17.2367 81.1723 17.2391 81.1723C17.4892 81.1723 17.7227 81.0759 17.8975 80.9012C18.0706 80.7273 18.1636 80.4973 18.1596 80.2531C18.0428 73.5337 17.8983 66.8484 17.7585 60.3835H17.7569Z" fill="#16A2FF"/>
<path d="M17.5981 57.675C17.606 57.5494 17.5337 57.4316 17.417 57.3818C15.2987 56.4856 13.1908 55.6051 11.152 54.754C10.0639 54.2995 8.93842 53.8301 7.83521 53.3669C7.6851 53.3037 7.51196 53.3725 7.44603 53.5203C7.38011 53.6681 7.44444 53.8419 7.59217 53.9107C8.67552 54.4165 9.77873 54.9342 10.8446 55.4344C12.8453 56.3726 14.9143 57.3431 17.0016 58.3096C17.0421 58.3286 17.085 58.3373 17.1279 58.3373C17.2065 58.3373 17.2843 58.3065 17.3423 58.2472C17.4241 58.1634 17.4487 58.0402 17.4074 57.9327C17.5155 57.8916 17.5909 57.7912 17.5988 57.6742L17.5981 57.675Z" fill="#16A2FF"/>
<path d="M26.982 53.5203C26.9161 53.3725 26.743 53.3045 26.5929 53.3669C25.4889 53.8293 24.3642 54.2995 23.2761 54.754C21.2373 55.6051 19.1294 56.4856 17.0111 57.3818C16.8944 57.4316 16.8213 57.5486 16.83 57.675C16.838 57.792 16.9134 57.8924 17.0214 57.9335C16.9801 58.0409 17.0048 58.1642 17.0866 58.248C17.1437 58.3065 17.2216 58.3381 17.301 58.3381C17.3439 58.3381 17.3868 58.3294 17.4273 58.3104C19.5146 57.3431 21.5836 56.3733 23.5843 55.4344C24.6509 54.9342 25.7533 54.4173 26.8367 53.9107C26.9836 53.8419 27.0488 53.6681 26.9828 53.5203H26.982Z" fill="#16A2FF"/>
<path d="M17.6092 62.3712C17.6171 62.2447 17.5448 62.1277 17.4281 62.0779C15.3098 61.1817 13.2019 60.3013 11.1631 59.4501C10.075 58.9956 8.94954 58.5262 7.84633 58.0631C7.69622 57.9998 7.52307 58.0686 7.45715 58.2164C7.39123 58.3642 7.45556 58.5381 7.60329 58.6068C8.68664 59.1126 9.78984 59.6303 10.8557 60.1306C12.8564 61.0687 14.9254 62.0392 17.0127 63.0058C17.0532 63.0248 17.0961 63.0334 17.139 63.0334C17.2176 63.0334 17.2954 63.0026 17.3534 62.9433C17.4352 62.8596 17.4599 62.7363 17.4186 62.6288C17.5266 62.5877 17.602 62.4873 17.61 62.3704L17.6092 62.3712Z" fill="#16A2FF"/>
<path d="M26.9932 58.2164C26.9272 58.0686 26.7541 58.0006 26.604 58.0631C25.5 58.5254 24.3753 58.9956 23.2872 59.4501C21.2484 60.3013 19.1405 61.1817 17.0222 62.0779C16.9055 62.1277 16.8324 62.2447 16.8411 62.3711C16.8491 62.4881 16.9245 62.5885 17.0326 62.6296C16.9913 62.7371 17.0159 62.8604 17.0977 62.9441C17.1549 63.0026 17.2327 63.0342 17.3121 63.0342C17.355 63.0342 17.3979 63.0255 17.4384 63.0066C19.5257 62.0392 21.5947 61.0695 23.5954 60.1306C24.6621 59.6303 25.7645 59.1134 26.8478 58.6068C26.9947 58.5381 27.0599 58.3642 26.994 58.2164H26.9932Z" fill="#16A2FF"/>
<path d="M17.139 68.6013C17.0961 68.6013 17.0532 68.5926 17.0127 68.5736C14.9254 67.6063 12.8564 66.6365 10.8557 65.6984C9.78905 65.1982 8.68585 64.6813 7.60329 64.1747C7.45636 64.1059 7.39123 63.932 7.45715 63.7843C7.52307 63.6365 7.69622 63.5685 7.84633 63.6309C8.95033 64.0933 10.075 64.5635 11.1631 65.018C13.2019 65.8691 15.3098 66.7496 17.4281 67.6458C17.5448 67.6956 17.6179 67.8126 17.6092 67.939C17.6012 68.056 17.5258 68.1564 17.4178 68.1975C17.4591 68.3049 17.4344 68.4282 17.3526 68.512C17.2954 68.5705 17.2176 68.6021 17.1382 68.6021L17.139 68.6013Z" fill="#16A2FF"/>
<path d="M17.3113 68.6013C17.2327 68.6013 17.1549 68.5705 17.0969 68.5112C17.0151 68.4274 16.9905 68.3041 17.0318 68.1967C16.9237 68.1556 16.8483 68.0552 16.8403 67.9382C16.8324 67.8126 16.9047 67.6948 17.0214 67.645C19.1397 66.7488 21.2476 65.8684 23.2864 65.0172C24.3745 64.5627 25.5 64.0933 26.6032 63.6301C26.7533 63.5669 26.9264 63.6357 26.9924 63.7835C27.0583 63.9313 26.994 64.1051 26.8462 64.1739C25.7629 64.6797 24.6605 65.1974 23.5938 65.6976C21.5931 66.6358 19.5241 67.6063 17.4368 68.5736C17.3963 68.5926 17.3534 68.6013 17.3105 68.6013H17.3113Z" fill="#16A2FF"/>
<path d="M168.203 61.5136C168.129 58.0544 168.051 54.4773 167.98 50.9659C167.977 50.811 167.85 50.6869 167.694 50.6869C167.539 50.6869 167.411 50.811 167.408 50.9659C167.337 54.4773 167.26 58.0544 167.185 61.5136C167.051 67.7035 166.913 74.1044 166.801 80.5376C166.797 80.7716 166.886 80.9921 167.051 81.158C167.218 81.3256 167.442 81.4181 167.681 81.4181C167.684 81.4181 167.687 81.4181 167.689 81.4181H167.698C167.698 81.4181 167.704 81.4181 167.707 81.4181C167.947 81.4181 168.17 81.3256 168.338 81.158C168.504 80.9921 168.592 80.7716 168.588 80.5376C168.476 74.1044 168.338 67.7035 168.204 61.5136H168.203Z" fill="#16A2FF"/>
<path d="M168.052 58.9206C168.06 58.7997 167.99 58.6874 167.878 58.64C165.85 57.7825 163.832 56.9392 161.88 56.1244C160.837 55.6897 159.76 55.2392 158.704 54.7966C158.56 54.7366 158.395 54.8014 158.332 54.9428C158.268 55.0843 158.33 55.2503 158.471 55.3167C159.509 55.8011 160.564 56.2967 161.586 56.7756C163.501 57.6742 165.482 58.6029 167.481 59.5291C167.519 59.5473 167.561 59.556 167.601 59.556C167.677 59.556 167.751 59.526 167.806 59.4698C167.885 59.39 167.909 59.2715 167.868 59.1687C167.971 59.1292 168.044 59.0328 168.052 58.9214V58.9206Z" fill="#16A2FF"/>
<path d="M177.035 54.9429C176.972 54.8014 176.807 54.7358 176.663 54.7966C175.606 55.24 174.529 55.6897 173.487 56.1244C171.535 56.9392 169.517 57.7825 167.489 58.64C167.377 58.6874 167.308 58.7997 167.315 58.9206C167.322 59.032 167.395 59.1284 167.499 59.168C167.459 59.2707 167.482 59.3884 167.561 59.4691C167.616 59.5252 167.69 59.5552 167.766 59.5552C167.806 59.5552 167.847 59.5465 167.886 59.5283C169.885 58.6021 171.866 57.6734 173.781 56.7748C174.803 56.2959 175.858 55.8011 176.895 55.3159C177.037 55.2503 177.099 55.0835 177.035 54.9421V54.9429Z" fill="#16A2FF"/>
<path d="M168.062 63.2373C168.07 63.1164 168 63.0042 167.888 62.9568C165.86 62.0993 163.842 61.256 161.89 60.4412C160.848 60.0065 159.771 59.556 158.714 59.1134C158.571 59.0533 158.406 59.1182 158.342 59.2596C158.278 59.4011 158.34 59.5671 158.482 59.6334C159.519 60.1179 160.575 60.6135 161.596 61.0924C163.512 61.991 165.493 62.9196 167.491 63.8459C167.53 63.8641 167.571 63.8728 167.612 63.8728C167.687 63.8728 167.762 63.8427 167.816 63.7866C167.895 63.7068 167.919 63.5883 167.878 63.4855C167.982 63.446 168.054 63.3496 168.062 63.2381V63.2373Z" fill="#16A2FF"/>
<path d="M177.046 59.2596C176.982 59.1182 176.817 59.0526 176.673 59.1134C175.616 59.5568 174.539 60.0065 173.498 60.4412C171.545 61.256 169.527 62.0993 167.5 62.9568C167.388 63.0042 167.319 63.1164 167.326 63.2373C167.333 63.3488 167.405 63.4452 167.509 63.4847C167.469 63.5875 167.492 63.7052 167.571 63.7858C167.626 63.8419 167.701 63.872 167.776 63.872C167.816 63.872 167.858 63.8633 167.897 63.8451C169.895 62.9188 171.876 61.9902 173.792 61.0916C174.813 60.6127 175.869 60.1179 176.906 59.6327C177.047 59.5671 177.109 59.4011 177.046 59.2588V59.2596Z" fill="#16A2FF"/>
<path d="M168.062 69.3513C168.07 69.2304 168 69.1182 167.888 69.0708C165.86 68.2133 163.842 67.37 161.89 66.5551C160.848 66.1205 159.771 65.67 158.714 65.2274C158.571 65.1673 158.406 65.2321 158.342 65.3736C158.278 65.5151 158.34 65.681 158.482 65.7474C159.519 66.2319 160.575 66.7274 161.596 67.2064C163.512 68.105 165.493 69.0336 167.491 69.9599C167.53 69.9781 167.571 69.9868 167.612 69.9868C167.687 69.9868 167.762 69.9567 167.816 69.9006C167.895 69.8208 167.919 69.703 167.878 69.5995C167.982 69.56 168.054 69.4636 168.062 69.3521V69.3513Z" fill="#16A2FF"/>
<path d="M177.046 65.3736C176.982 65.2321 176.817 65.1665 176.673 65.2274C175.616 65.6708 174.539 66.1205 173.498 66.5551C171.545 67.37 169.527 68.2133 167.5 69.0708C167.388 69.1182 167.319 69.2304 167.326 69.3513C167.333 69.4628 167.405 69.5592 167.509 69.5987C167.469 69.7014 167.492 69.8192 167.571 69.8998C167.626 69.9559 167.701 69.986 167.776 69.986C167.816 69.986 167.858 69.9773 167.897 69.9591C169.895 69.0328 171.876 68.1042 173.792 67.2056C174.813 66.7266 175.869 66.2319 176.906 65.7466C177.047 65.681 177.109 65.5151 177.046 65.3728V65.3736Z" fill="#16A2FF"/>
<path d="M182.738 55.2092C181.928 53.1346 180.74 51.1429 179.304 49.4501C177.789 47.6647 176.055 46.2484 174.151 45.2408C172.084 44.1478 169.916 43.5929 167.708 43.5929C165.5 43.5929 163.322 44.147 161.235 45.2392C160.032 45.8683 158.894 46.657 157.834 47.5944C157.197 48.1579 156.588 48.7743 156.01 49.4437C155.674 49.8326 155.351 50.2372 155.043 50.6545C154.007 52.0574 153.14 53.6056 152.5 55.2013C151.65 57.3225 151.202 59.5378 151.202 61.6093C151.202 65.2029 152.524 68.2496 155.043 70.5036C155.398 70.8221 155.777 71.1248 156.179 71.4101C156.696 71.7768 157.248 72.1143 157.834 72.421C158.923 72.9908 160.126 73.4547 161.43 73.8056C163.128 74.2624 164.969 74.5217 166.911 74.5762C167.175 74.5841 167.44 74.588 167.708 74.588C167.975 74.588 168.222 74.5849 168.476 74.577C170.426 74.524 172.265 74.2648 173.954 73.8048C175.938 73.265 177.682 72.4581 179.136 71.4054C182.318 69.1032 183.999 65.7158 183.999 61.6093C183.999 59.537 183.563 57.3241 182.738 55.2092ZM168.438 72.6786C168.195 72.6857 167.951 72.6897 167.708 72.6897C167.453 72.6897 167.2 72.6857 166.948 72.6778C163.105 72.5632 159.696 71.5753 157.287 69.8642C154.515 67.8971 153.109 65.1191 153.109 61.6093C153.109 54.309 159.621 45.4913 167.708 45.4913C175.794 45.4913 182.091 54.1557 182.091 61.6093C182.091 69.4936 175.172 72.4794 168.438 72.6786Z" fill="#16A2FF"/>
<path d="M27.8247 100.633H8.67473C7.96547 100.633 7.39044 100.009 7.39044 99.2384C7.39044 98.4678 7.96547 97.8435 8.67473 97.8435H27.8247C28.534 97.8435 29.109 98.4678 29.109 99.2384C29.109 100.009 28.534 100.633 27.8247 100.633Z" fill="#16A2FF"/>
<path d="M65.7165 100.633H46.5665C45.8572 100.633 45.2822 100.009 45.2822 99.2384C45.2822 98.4678 45.8572 97.8435 46.5665 97.8435H65.7165C66.4258 97.8435 67.0008 98.4678 67.0008 99.2384C67.0008 100.009 66.4258 100.633 65.7165 100.633Z" fill="#16A2FF"/>
<path d="M103.608 100.633H84.4583C83.749 100.633 83.174 100.009 83.174 99.2384C83.174 98.4678 83.749 97.8435 84.4583 97.8435H103.608C104.318 97.8435 104.893 98.4678 104.893 99.2384C104.893 100.009 104.318 100.633 103.608 100.633Z" fill="#16A2FF"/>
<path d="M141.5 100.633H122.35C121.641 100.633 121.066 100.009 121.066 99.2384C121.066 98.4678 121.641 97.8435 122.35 97.8435H141.5C142.209 97.8435 142.784 98.4678 142.784 99.2384C142.784 100.009 142.209 100.633 141.5 100.633Z" fill="#16A2FF"/>
<path d="M179.391 100.633H160.241C159.532 100.633 158.957 100.009 158.957 99.2384C158.957 98.4678 159.532 97.8435 160.241 97.8435H179.391C180.1 97.8435 180.675 98.4678 180.675 99.2384C180.675 100.009 180.1 100.633 179.391 100.633Z" fill="#16A2FF"/>
</svg>
