<svg width="37" height="41" viewBox="0 0 37 41" fill="none" xmlns="http://www.w3.org/2000/svg">
<path d="M4.58197 36.2126H11.4549V24.5311C11.4549 23.8692 11.6749 23.3147 12.1147 22.8677C12.5546 22.4207 13.0983 22.1964 13.7459 22.1948H22.9098C23.5589 22.1948 24.1034 22.4191 24.5433 22.8677C24.9832 23.3163 25.2023 23.8707 25.2008 24.5311V36.2126H32.0738V15.1859L18.3279 4.6726L4.58197 15.1859V36.2126ZM0 36.2126V15.1859C0 14.4461 0.162659 13.7452 0.487979 13.0833C0.813299 12.4213 1.26157 11.8762 1.83279 11.4479L15.5787 0.934519C16.3805 0.311507 17.2969 0 18.3279 0C19.3588 0 20.2752 0.311507 21.077 0.934519L34.823 11.4479C35.3957 11.8762 35.8447 12.4213 36.1701 13.0833C36.4954 13.7452 36.6573 14.4461 36.6557 15.1859V36.2126C36.6557 37.4976 36.2067 38.598 35.3086 39.5138C34.4106 40.4296 33.3323 40.8868 32.0738 40.8852H22.9098C22.2607 40.8852 21.717 40.6609 21.2787 40.2124C20.8403 39.7638 20.6204 39.2093 20.6189 38.5489V26.8674H16.0369V38.5489C16.0369 39.2109 15.817 39.7661 15.3771 40.2147C14.9372 40.6633 14.3935 40.8868 13.7459 40.8852H4.58197C3.32193 40.8852 2.24364 40.4281 1.3471 39.5138C0.45056 38.5995 0.00152732 37.4991 0 36.2126Z" fill="#fff"/>
</svg>
