<svg width="155" height="155" viewBox="0 0 155 155" fill="none" xmlns="http://www.w3.org/2000/svg">
<path d="M93.9491 47.0731C91.3188 45.5514 88.0772 45.7789 85.6744 47.642L33.2679 88.5003C30.7087 90.4913 29.7561 93.7623 30.8366 96.8341C31.903 99.849 34.6328 101.783 37.8318 101.783C37.8744 101.783 37.9171 101.783 37.9739 101.783L61.5754 101.385C62.2578 101.428 62.8123 101.712 63.1251 102.281L74.5846 122.931C75.921 125.348 78.3523 126.756 81.0252 126.756C81.4944 126.756 81.9636 126.713 82.447 126.628C85.6459 126.031 87.9919 123.57 88.4468 120.356L97.6173 54.5394C98.0296 51.5244 96.6078 48.609 93.9775 47.0873L93.9491 47.0731ZM82.7882 119.56C82.6318 120.684 81.7503 120.954 81.3806 121.025C81.011 121.096 80.0868 121.153 79.5465 120.157L68.0871 99.5077C66.779 97.147 64.2909 95.6821 61.5896 95.6821H61.4616L37.846 96.0803C36.6943 96.0803 36.3105 95.2839 36.1825 94.9284C36.0545 94.5729 35.8555 93.6769 36.7512 92.9801L89.1577 52.1217C89.9966 51.4675 90.7928 51.8089 91.0913 51.9937C91.3899 52.1644 92.0866 52.6906 91.9444 53.743L82.774 119.56H82.7882Z" fill="#16A2FF"/>
<path d="M140.242 3.4416C139.304 2.91541 138.408 2.48876 137.64 2.20433C134.199 0.725295 130.29 0 125.697 0C119.882 0 114.991 1.19461 110.783 3.66915C107.655 5.47528 104.939 7.90715 102.707 10.7372C68.2577 -3.14295 28.7609 10.339 10.0504 42.7498C0.0553108 60.0716 -2.58918 80.2376 2.58607 99.5504C7.76131 118.863 20.1307 135.005 37.4337 144.988C49.1775 151.772 62.0303 155 74.7125 155C100.589 155 125.797 141.575 139.631 117.597C150.806 98.242 152.711 75.2743 145.005 54.3261C147.01 51.1831 148.801 48.0829 150.393 44.9826C152.668 40.5597 155 35.184 155 28.8696C155 18.4168 149.213 8.43335 140.256 3.4416H140.242ZM134.711 114.739C115.645 147.761 73.2908 159.11 40.2772 140.053C24.2965 130.823 12.8513 115.919 8.0741 98.0714C3.29695 80.2234 5.7424 61.5933 14.9697 45.5941C32.0736 15.9565 67.9876 3.42738 99.5793 15.601C98.513 17.7058 97.6884 19.9243 97.1481 22.1997C68.6985 11.1496 36.5095 22.2993 21.0549 49.1068C12.7517 63.4847 10.548 80.2234 14.8417 96.251C19.1355 112.279 29.4149 125.675 43.7748 133.981C53.5282 139.612 64.1914 142.286 74.7268 142.286C96.2097 142.286 117.138 131.136 128.626 111.24C136.318 97.915 138.778 82.3993 135.621 67.4099C137.541 64.978 139.346 62.603 141.01 60.2707C146.512 78.5168 144.322 98.0714 134.711 114.725V114.739ZM109.845 59.3036C113.769 64.8358 117.721 69.9128 121.531 74.3357C122.171 75.1179 122.854 75.8859 123.55 76.6965L125.683 79.1426L127.83 76.7107C128.868 75.5303 129.863 74.3642 130.844 73.2122C132.365 85.3574 129.906 97.6447 123.707 108.382C108.153 135.332 73.5751 144.604 46.6183 129.046C33.5665 121.508 24.2254 109.335 20.3298 94.772C16.4341 80.2092 18.4388 65.0064 25.9742 51.9511C40.263 27.1773 70.2766 17.1227 96.423 28.0306C96.423 28.4145 96.4088 28.7985 96.423 29.1825C96.75 40.7303 104.015 51.0125 109.845 59.2894V59.3036ZM145.332 42.3943C143.654 45.6794 141.721 48.9788 139.531 52.3635C139.531 52.3635 139.531 52.3777 139.517 52.392C135.778 58.1232 131.256 64.0678 125.712 70.4959C122.029 66.201 118.247 61.3231 114.479 56.0184C109.091 48.3815 102.394 38.8673 102.11 29.0261C101.854 20.9198 106.475 12.714 113.626 8.58978C117.01 6.61299 120.835 5.6886 125.683 5.6886C129.536 5.6886 132.621 6.24324 135.508 7.48051C136.133 7.72227 136.773 8.02092 137.455 8.4049C144.65 12.4154 149.284 20.4505 149.284 28.8696C149.284 33.9609 147.28 38.5545 145.304 42.38L145.332 42.3943Z" fill="#16A2FF"/>
<path d="M135.422 11.4625C128.555 7.3809 119.783 8.04931 113.555 13.169C107.356 18.3457 105.082 26.8928 107.897 34.4728C110.669 41.868 117.821 46.8455 125.697 46.8455C134.697 46.8455 142.716 40.1899 144.365 31.3583C145.83 23.5223 142.247 15.5298 135.422 11.4767V11.4625ZM138.763 30.2917C137.612 36.4781 131.981 41.1427 125.683 41.1427C120.167 41.1427 115.148 37.6585 113.214 32.4818C111.266 27.2483 112.901 21.1046 117.181 17.5493C119.612 15.5583 122.683 14.5343 125.754 14.5343C128.1 14.5343 130.46 15.1316 132.508 16.3547C137.285 19.199 139.801 24.8022 138.763 30.3059V30.2917Z" fill="#16A2FF"/>
</svg>
