<svg width="148" height="135" viewBox="0 0 148 135" fill="none" xmlns="http://www.w3.org/2000/svg">
<path d="M132.955 83.4535C133.449 83.9471 134.12 84.2301 134.818 84.2301C135.516 84.2301 136.187 83.9471 136.681 83.4535L146.836 73.3048C147.33 72.8111 147.606 72.1398 147.606 71.4421C147.606 70.7445 147.33 70.0731 146.836 69.5795L79.6309 2.3743C76.4586 -0.791434 71.3249 -0.791434 68.1526 2.3743L46.0587 24.4683V18.3012C47.9804 18.5052 49.9155 17.8866 49.9812 15.6686V5.86202C49.9812 4.41406 48.8031 3.23595 47.3486 3.22938H19.1992C17.7446 3.22938 16.5665 4.41406 16.5665 5.86202V15.6686C16.6455 17.9194 18.5739 18.4921 20.4891 18.3012V50.0378L0.947779 69.5791C0.454157 70.0728 0.177734 70.7441 0.177734 71.4418C0.177734 72.1394 0.454157 72.8107 0.947779 73.3044L11.1031 83.4532C11.5967 83.9468 12.2681 84.2298 12.9658 84.2298C13.6634 84.2298 14.3347 83.9468 14.8284 83.4532L20.4886 77.793V129.735H12.9659C11.5114 129.735 10.3333 130.913 10.3333 132.367C10.3333 133.822 11.5114 135 12.9659 135H134.817C136.252 134.967 137.397 133.802 137.397 132.367C137.397 130.933 136.252 129.761 134.817 129.735H127.294V77.793L132.955 83.4535ZM21.832 8.49618H44.7161V13.0375H21.832V8.49618ZM25.7546 18.2962H40.8001V29.7285L25.7546 44.774V18.2962ZM12.9666 77.8722L6.53639 71.4419L24.9842 52.9941L45.2888 32.6828L71.8781 6.09353C72.9904 4.98782 74.7938 4.98782 75.906 6.09353L141.248 71.4419L134.817 77.8722L75.7536 18.8084C75.26 18.3148 74.5887 18.0317 73.891 18.0317C73.1933 18.0317 72.522 18.3148 72.0284 18.8084L12.9666 77.8722ZM109.861 129.735H84.6603V84.9992H109.861V129.735ZM122.031 129.735H115.126V82.3674C115.126 81.6698 114.85 80.9985 114.356 80.5048C113.863 80.0111 113.191 79.7347 112.494 79.7347H82.0276C80.5731 79.7347 79.395 80.9129 79.395 82.3674V129.735H25.7549V72.5276L73.8921 24.3904L122.029 72.5276L122.031 129.735Z" fill="#16A2FF"/>
<path d="M69.2449 79.735H38.2396C36.785 79.735 35.6069 80.9131 35.6069 82.3676V107.365C35.6069 108.819 36.785 109.997 38.2396 109.997H69.2449C69.9425 109.997 70.6139 109.721 71.1075 109.227C71.6012 108.734 71.8776 108.062 71.8776 107.365V82.3676C71.8776 81.6699 71.6012 80.9986 71.1075 80.5049C70.6139 80.0113 69.9426 79.735 69.2449 79.735ZM66.6123 85.0002V97.0775L40.8722 97.0709V85.0002L66.6123 85.0002ZM40.8722 104.732V102.336H66.6123V104.732H40.8722Z" fill="#16A2FF"/>
</svg>
