<svg width="186" height="144" viewBox="0 0 186 144" fill="none" xmlns="http://www.w3.org/2000/svg">
<path d="M170.304 58.158H141.562C139.429 58.158 137.713 59.8132 137.713 61.8317V82.4372C137.713 84.3186 139.326 85.8364 141.29 85.8364H175.111C176.205 85.8364 177.243 85.3681 177.922 84.5123C178.553 83.7129 178.769 82.744 178.577 81.7751L173.929 60.9521C173.554 59.3534 172.021 58.158 170.304 58.158ZM175.791 82.7678C175.623 82.9615 175.383 83.0746 175.104 83.0746H141.291C140.796 83.0746 140.445 82.7435 140.445 82.4367V61.8312C140.445 61.3306 140.964 60.9188 141.563 60.9188H170.297C170.76 60.9188 171.168 61.2256 171.255 61.5809L175.903 82.3481C175.927 82.4934 175.902 82.6305 175.791 82.7678ZM178.306 58.8277C177.62 55.6788 174.84 53.3857 171.638 53.3857H138.639C135.525 53.3857 132.985 55.9533 132.985 59.1022V107.046H111.055L106.327 95.9443C105.504 94.0146 103.46 93.0133 101.495 93.5381L94.1721 76.3319L121.302 65.1734C122.939 64.479 123.761 62.6624 123.13 61.0878L104.036 13.7492L113.763 9.74442C114.825 9.30034 115.32 8.05689 114.881 6.9831L112.996 2.3404C112.557 1.26653 111.359 0.709412 110.289 1.15349L91.0826 9.08231C89.2219 9.82515 88.1039 11.7064 88.2396 13.725L88.6469 19.7485L3.06951 55.0157C1.40043 55.7101 0.585952 57.5267 1.20876 59.1013L19.2892 103.897C19.9201 105.448 21.7728 106.191 23.4179 105.496L91.6832 77.3808L99.0063 94.6111C98.2396 95.0794 97.6647 95.7738 97.3372 96.5974C96.9299 97.647 96.9539 98.7775 97.3931 99.8271L100.452 107.037L22.4919 107.045C20.719 107.045 19.2417 108.507 19.2417 110.332V121.821C19.2417 123.646 20.7191 125.132 22.4919 125.132H31.1807C31.013 125.931 30.965 126.763 30.965 127.586C30.965 136.064 37.793 143 46.2103 143C54.6276 143 61.4555 136.064 61.4555 127.586C61.4555 126.755 61.3996 125.931 61.2399 125.132H66.4309C66.2632 125.931 66.2153 126.763 66.2153 127.586C66.2153 136.064 73.0432 143 81.4605 143C89.8778 143 96.7058 136.064 96.7058 127.586C96.7058 126.755 96.6499 125.931 96.4901 125.132H136.397C136.23 125.931 136.182 126.763 136.182 127.586C136.182 136.064 143.01 143 151.427 143C159.844 143 166.672 136.064 166.672 127.586C166.672 126.755 166.616 125.931 166.456 125.132H177.765C181.75 125.132 185 121.846 185 117.792V91.163L178.306 58.8277ZM90.5966 74.847L22.3804 102.962C22.1089 103.075 21.8613 102.987 21.8054 102.849L3.74908 58.0532C3.69318 57.9402 3.80498 57.698 4.07652 57.5849L91.5471 21.5405L90.9721 13.5309C90.9162 12.7315 91.3794 11.9322 92.1221 11.6253L110.697 3.97101L112.119 7.45102L100.483 12.231L120.592 62.1388C120.648 62.2761 120.536 62.4941 120.265 62.6071L93.1127 73.79L90.5966 74.847ZM99.9083 98.7312C99.7406 98.376 99.7406 97.9884 99.8844 97.6574C99.9403 97.5201 100.02 97.3828 100.132 97.2698C100.268 97.076 100.435 96.963 100.651 96.858L101.961 96.2767C102.152 96.1959 102.344 96.1636 102.536 96.1636H102.616C103.135 96.1879 103.598 96.5189 103.821 97.0195L108.03 106.935L107.783 107.048H103.438L99.9083 98.7312ZM46.2014 140.241C39.2935 140.241 33.6873 134.549 33.6873 127.588C33.6873 126.757 33.7671 125.933 33.9348 125.134C34.1265 124.165 34.398 123.228 34.8053 122.373C36.7699 117.98 41.1463 114.944 46.1933 114.944C51.2486 114.944 55.6169 117.98 57.5814 122.373C57.9887 123.228 58.2682 124.165 58.4519 125.134C58.6196 125.933 58.6994 126.765 58.6994 127.588C58.7154 134.557 53.0854 140.241 46.2014 140.241ZM81.4431 140.241C74.5352 140.241 68.929 134.549 68.929 127.588C68.929 126.757 69.0089 125.933 69.1766 125.134C69.3682 124.165 69.6398 123.228 70.047 122.373C72.0116 117.98 76.388 114.944 81.4351 114.944C86.4903 114.944 90.8586 117.98 92.8231 122.373C93.2304 123.228 93.5099 124.165 93.6936 125.134C93.8613 125.933 93.9411 126.765 93.9411 127.588C93.9491 134.557 88.3271 140.241 81.4431 140.241ZM151.401 140.241C144.517 140.241 138.887 134.549 138.887 127.588C138.887 126.757 138.967 125.933 139.135 125.134C139.326 124.165 139.63 123.228 140.037 122.373C141.978 117.98 146.346 114.944 151.401 114.944C156.456 114.944 160.825 117.98 162.789 122.373C163.196 123.228 163.476 124.165 163.66 125.134C163.827 125.933 163.907 126.765 163.907 127.588C163.907 134.557 158.309 140.241 151.401 140.241ZM182.268 117.795C182.268 120.339 180.215 122.382 177.732 122.382H165.713C163.612 116.447 158.006 112.192 151.402 112.192C144.789 112.192 139.191 116.447 137.091 122.382L95.7547 122.373C93.6544 116.439 88.0482 112.184 81.4437 112.184C74.8313 112.184 69.233 116.439 67.1328 122.373H60.5203C58.4201 116.439 52.8139 112.184 46.2094 112.184C39.5969 112.184 33.9986 116.439 31.8984 122.373H22.4988C22.2273 122.373 21.9797 122.123 21.9797 121.824L21.9717 110.335C21.9717 110.06 22.2192 109.81 22.4908 109.81H135.717V59.1042C135.717 57.4732 137.027 56.149 138.64 56.149H171.639C173.548 56.149 175.217 57.5055 175.624 59.4109L182.26 91.3131L182.268 117.795ZM99.1969 62.5029L94.525 30.0199C94.4131 29.3578 94.0298 28.7764 93.4628 28.4454C92.8878 28.1143 92.2569 28.0578 91.6899 28.3081L78.1695 33.8874C76.9956 34.3557 76.4206 35.7687 76.9397 37.0121L88.6872 66.1755C89.1823 67.4189 90.5479 68.0244 91.7458 67.5319L97.7832 65.0451C98.7575 64.6253 99.3646 63.5768 99.1969 62.5029ZM91.083 64.8202L79.5831 36.2934L91.9296 31.1824L96.4336 62.6153L91.083 64.8202ZM74.2005 38.1434C73.7054 36.8758 72.3718 36.2621 71.1658 36.7627L61.4708 40.7675C60.2968 41.2358 59.7538 42.6488 60.2409 43.8922L72.0123 73.0556C72.5074 74.299 73.873 74.9046 75.047 74.4121L84.7421 70.4072C85.948 69.9389 86.4591 68.5582 85.9719 67.2825L74.2005 38.1434ZM74.4241 71.6992L62.9004 43.1414L71.8048 39.4677L83.3286 68.0255L74.4241 71.6992ZM57.5417 44.9893C57.0466 43.7459 55.681 43.1403 54.507 43.6329L44.8119 47.6377C43.6061 48.106 43.0949 49.4867 43.5821 50.7624L55.3295 79.903C55.8486 81.1706 57.1903 81.7843 58.3643 81.2837L68.0912 77.2789C69.2652 76.8106 69.8082 75.3976 69.3211 74.1542L57.5417 44.9893ZM57.7573 78.5699L46.2336 50.0121L55.138 46.3385L66.6379 74.8962L57.7573 78.5699ZM40.8749 51.8683C40.3558 50.6249 39.0142 50.0193 37.8163 50.5118L28.1212 54.4925C26.9473 54.9931 26.3723 56.398 26.8914 57.6414L38.6388 86.8047C39.1579 88.0482 40.5235 88.6537 41.6975 88.1612L51.3925 84.1564C52.5665 83.6881 53.1415 82.2751 52.6224 81.0317L40.8749 51.8683ZM41.0426 85.4489L29.5428 56.8911L38.4791 53.2175L49.979 81.7442L41.0426 85.4489ZM24.1841 58.739C23.665 57.4956 22.3234 56.89 21.1494 57.3826L11.4224 61.3874C10.2725 61.8557 9.70546 63.2364 10.2166 64.5121L21.964 93.6527C22.4831 94.9204 23.8248 95.534 24.9988 95.0334L34.7257 91.0286C35.8997 90.528 36.4427 89.1473 35.9316 87.9039L24.1841 58.739ZM24.3758 92.3279L12.8759 63.7701L21.7804 60.0964L33.2803 88.6542L24.3758 92.3279ZM50.0824 125.133C50.5455 125.852 50.7931 126.684 50.7931 127.588C50.7931 130.156 48.7407 132.231 46.2011 132.231C43.6616 132.231 41.6092 130.156 41.6092 127.588C41.6092 126.675 41.8567 125.852 42.3199 125.133C43.1105 123.809 44.5561 122.953 46.2011 122.953C47.8382 122.953 49.2918 123.809 50.0824 125.133ZM85.3159 125.133C85.7791 125.852 86.0267 126.684 86.0267 127.588C86.0267 130.156 83.9743 132.231 81.4347 132.231C78.8951 132.231 76.8427 130.156 76.8427 127.588C76.8427 126.675 77.0903 125.852 77.5535 125.133C78.3441 123.809 79.7897 122.953 81.4346 122.953C83.0796 122.953 84.5253 123.809 85.3159 125.133ZM155.274 125.133C155.737 125.852 155.985 126.684 155.985 127.588C155.985 130.156 153.932 132.231 151.393 132.231C148.853 132.231 146.801 130.156 146.801 127.588C146.801 126.675 147.048 125.852 147.512 125.133C148.302 123.809 149.748 122.953 151.393 122.953C153.038 122.953 154.483 123.809 155.274 125.133Z" fill="#16A2FF" stroke="#16A2FF" stroke-width="0.5"/>
</svg>
