<svg width="162" height="146" viewBox="0 0 162 146" fill="none" xmlns="http://www.w3.org/2000/svg">
<path d="M27.2493 91.3298H78.942C82.5185 91.2617 82.5321 85.9481 78.942 85.8799H27.2493C15.2324 85.8799 5.44987 76.0974 5.44987 64.0804V58.249C5.44987 46.2321 15.2324 36.4495 27.2493 36.4495H81.83C93.8469 36.4495 103.629 46.2321 103.629 58.249V62.4453C103.664 66.015 109.032 66.0286 109.079 62.4453C110.68 45.8233 98.9086 31.061 81.83 31H27.2493C12.2213 31 0 43.2213 0 58.2493V64.0808C0 79.1088 12.2213 91.3298 27.2493 91.3298Z" fill="#16A2FF"/>
<path d="M84.1178 108.997H16.2935C13.2892 108.997 10.8437 106.552 10.8437 103.548V90.7402C10.796 87.1705 5.44821 87.1501 5.3938 90.7402V103.548C5.3938 109.556 10.2851 114.447 16.2935 114.447H84.1178C87.6601 114.393 87.7283 109.066 84.1178 108.997Z" fill="#16A2FF"/>
<path d="M8.11947 34.6612C9.62499 34.6612 10.8444 33.4418 10.8444 31.9362V21.7995H144.365V71.7743C144.386 75.3167 149.768 75.378 149.815 71.7743V10.8997C149.815 4.89128 144.924 0 138.915 0H16.2943C10.2858 0 5.39453 4.89128 5.39453 10.8997V31.9354C5.39453 33.4409 6.61394 34.6612 8.11947 34.6612ZM10.8444 10.8997C10.8444 7.89542 13.29 5.44987 16.2943 5.44987H138.915C141.92 5.44987 144.365 7.89542 144.365 10.8997V16.3496H10.8444V10.8997Z" fill="#16A2FF"/>
<path d="M24.4692 8.17395C20.8927 8.24207 20.8927 13.5556 24.4692 13.6238C28.0458 13.5557 28.0458 8.24214 24.4692 8.17395Z" fill="#16A2FF"/>
<path d="M32.6431 8.17395C29.0666 8.24207 29.0666 13.5556 32.6431 13.6238C36.2196 13.5557 36.2196 8.24214 32.6431 8.17395Z" fill="#16A2FF"/>
<path d="M16.2935 8.17395C12.717 8.24207 12.717 13.5556 16.2935 13.6238C19.87 13.5557 19.87 8.24214 16.2935 8.17395Z" fill="#16A2FF"/>
<path d="M156.193 79.3978L89.9902 64.5334C87.49 63.968 84.9081 64.7173 83.0961 66.5362C81.2772 68.3551 80.5346 70.9301 81.0934 73.437L95.9578 139.639C97.0137 145.232 104.575 147.46 108.493 143.277L125.557 126.219L135.326 135.988C138.14 138.802 143.052 138.802 145.858 135.988L152.541 129.305C155.443 126.403 155.443 121.675 152.541 118.766L142.772 108.998L159.837 91.9395C164.006 88.0564 161.799 80.454 156.2 79.4048L156.193 79.3978ZM155.981 88.0836L136.988 107.07C136.477 107.581 136.191 108.276 136.191 108.998C136.191 109.72 136.477 110.415 136.988 110.926L148.685 122.623C149.461 123.399 149.461 124.673 148.685 125.45L142.002 132.133C141.246 132.889 139.931 132.889 139.175 132.133L127.485 120.436C126.47 119.38 124.644 119.38 123.629 120.436L104.636 139.422C103.886 140.179 103.007 140.029 102.66 139.933C102.319 139.831 101.502 139.491 101.27 138.448L86.4059 72.2459C86.1879 71.2785 86.7124 70.6246 86.944 70.3929C87.1416 70.1068 88.1158 69.6231 88.797 69.8548L154.999 84.7192C156.042 84.9508 156.382 85.7751 156.484 86.1158C156.58 86.4564 156.731 87.3343 155.981 88.0836Z" fill="#16A2FF"/>
<rect x="39.5" y="52.5" width="19" height="19" rx="9.5" stroke="#16A2FF" stroke-width="5"/>
</svg>
