<svg width="186" height="128" viewBox="0 0 186 128" fill="none" xmlns="http://www.w3.org/2000/svg">
<path fill-rule="evenodd" clip-rule="evenodd" d="M9.10149 0H176.149C181.165 0 185.25 4.08454 185.25 9.1015V118.325C185.25 123.342 181.165 127.426 176.149 127.426H9.10149C4.08453 127.426 0 123.342 0 118.325V9.1015C0 4.08454 4.08454 0 9.10149 0ZM131.702 5.35322H40.6815V43.3637H83.5064V19.2747H131.702V5.35322ZM131.719 43.3637V24.6279H88.8767V43.3637H131.719ZM131.702 52.7125V48.7169H40.6644V89.9484H75.3057L94.5975 67.4527H124.998L130.173 54.6829L130.176 54.6773C130.453 53.9758 130.891 53.3917 131.433 52.9373L131.702 52.7125ZM9.10149 122.073H35.3283V108.151H5.35321V118.325C5.35321 120.384 7.04251 122.073 9.10149 122.073ZM5.35321 102.798H35.3283V95.3016H5.35321V102.798ZM5.35321 89.9484H35.3283V48.7169H5.35321V89.9484ZM5.35321 9.1015V43.3637H35.3454V5.35322H9.10149C7.04251 5.35322 5.35321 7.04251 5.35321 9.1015ZM40.6815 108.151V122.073H130.969V121.323H131.702V108.151H40.6815ZM40.6815 102.798H131.719V82.118L126.608 85.1798L126.605 85.1816C124.934 86.1935 122.818 86.006 121.329 84.7382C119.847 83.476 119.346 81.4049 120.082 79.5951L120.082 79.594L122.83 72.8059H97.0774L77.7856 95.3016H40.6815V102.798ZM125.97 79.3469L132.294 75.5475C133.686 74.8244 135.341 74.8719 136.699 75.6894L142.786 79.3469L134.378 58.5885L125.97 79.3469ZM137.072 108.151V122.073H176.149C178.207 122.073 179.897 120.384 179.897 118.325V108.151H137.072ZM137.072 102.798H179.897V95.3016H137.072V102.798ZM137.072 89.9484H179.897V48.6998H137.072V52.6992L137.324 52.923C137.868 53.4073 138.308 53.9843 138.583 54.6659L148.692 79.5951C149.428 81.4049 148.927 83.476 147.444 84.7382L147.441 84.7405C146.605 85.4597 145.563 85.8271 144.504 85.8271C143.698 85.8271 142.888 85.6074 142.163 85.1785L142.162 85.1778L137.072 82.1371V89.9484ZM137.072 43.3637H179.897V9.1015C179.897 7.04251 178.207 5.35322 176.149 5.35322H137.072V43.3637Z" fill="#16A2FF"/>
</svg>
