<svg width="216" height="111" viewBox="0 0 216 111" fill="none" xmlns="http://www.w3.org/2000/svg">
<path d="M132.326 66.1447V27.2669C132.326 25.4851 133.769 24.0453 135.555 24.0453C137.341 24.0453 138.784 25.4852 138.784 27.2669V66.1447C138.784 67.9265 137.341 69.3662 135.555 69.3662C133.769 69.3662 132.326 67.9263 132.326 66.1447ZM110.872 69.3662C112.658 69.3662 114.101 67.9263 114.101 66.1447V27.2669C114.101 25.4851 112.658 24.0453 110.872 24.0453C109.086 24.0453 107.643 25.4852 107.643 27.2669V66.1447C107.643 67.9265 109.086 69.3662 110.872 69.3662ZM86.1784 69.3662C87.9645 69.3662 89.4078 67.9263 89.4078 66.1447V27.2669C89.4078 25.4851 87.9644 24.0453 86.1784 24.0453C84.3925 24.0453 82.9491 25.4852 82.9491 27.2669V66.1447C82.9491 67.9265 84.3925 69.3662 86.1784 69.3662ZM61.4848 69.3662C63.2709 69.3662 64.7142 67.9263 64.7142 66.1447V27.2669C64.7142 25.4851 63.2708 24.0453 61.4848 24.0453C59.6989 24.0453 58.2555 25.4852 58.2555 27.2669V66.1447C58.2555 67.9265 59.6989 69.3662 61.4848 69.3662ZM194.766 61.6591H190.903C189.117 61.6591 187.674 63.0991 187.674 64.8807C187.674 66.6624 189.117 68.1023 190.903 68.1023H194.766C196.552 68.1023 197.996 66.6624 197.996 64.8807C197.996 63.0991 196.552 61.6591 194.766 61.6591ZM215.95 82.1498C215.909 82.3984 215.836 82.6366 215.732 82.8542C215.732 82.8645 215.732 82.8645 215.722 82.8749L211.433 92.4779C210.041 95.6375 206.885 97.6885 203.416 97.6885H194.995C192.347 105.417 185.005 111 176.366 111C167.726 111 160.384 105.416 157.736 97.6885H97.9849C95.3369 105.417 87.9953 111 79.3557 111C70.7161 111 63.3849 105.416 60.7266 97.6885H54.3508C50.8721 97.6885 47.7153 95.6374 46.3136 92.4673L42.8971 84.7912H36.6561L35.7215 88.7485C35.3788 90.1988 34.0704 91.2347 32.5751 91.2347H8.77466C3.93568 91.2347 0 87.3084 0 82.4811V74.9394C0 74.5872 0.0519201 74.2454 0.166147 73.9139L22.2947 8.46347C24.0081 3.39769 28.7537 0 34.1119 0H52.6788C53.6653 0 54.5999 0.455823 55.2125 1.2224C55.8252 1.99934 56.0537 3.0042 55.8252 3.96771L54.7245 8.62933H144.287C151.161 8.62933 156.758 14.213 156.758 21.0707V78.3372H161.66C162.698 77.1666 163.861 76.1203 165.149 75.2293V31.7001C165.149 26.8727 169.084 22.9465 173.923 22.9465H193.954C197.111 22.9465 200.04 24.6557 201.597 27.4113L215.585 52.2838C215.616 52.3459 215.626 52.4081 215.657 52.4702C215.709 52.5842 215.761 52.7085 215.803 52.8328C215.844 52.9364 215.875 53.0504 215.907 53.154C215.938 53.3093 215.958 53.4751 215.969 53.6408C215.979 53.7133 216 53.7859 216 53.8687V81.5685C216 81.7031 215.979 81.8274 215.958 81.9517C215.948 82.0243 215.948 82.0864 215.938 82.1589L215.95 82.1498ZM191.08 78.3376H209.543V57.0909H184.559V73.5102C187.061 74.6601 189.273 76.3072 191.08 78.3376ZM193.956 29.4009H184.548V50.6477H207.248L195.96 30.5819C195.555 29.8567 194.787 29.4113 193.956 29.4113L193.956 29.4009ZM171.62 72.3203C173.147 71.937 174.725 71.7194 176.366 71.7194C176.947 71.7194 177.518 71.7609 178.079 71.8023V29.4028H173.925C172.648 29.4028 171.62 30.4387 171.62 31.7025L171.62 72.3203ZM157.83 84.7927H97.9028C98.6297 86.8128 99.0451 88.9778 99.0554 91.2465H156.678C156.688 88.9778 157.103 86.8127 157.83 84.7927ZM30.022 84.7824L47.457 11.2329C47.4674 11.2018 47.4674 11.1707 47.4778 11.1396L48.5889 6.44698H34.1134C31.5381 6.44698 29.2433 8.08375 28.423 10.5286L6.47089 75.4698V82.4829C6.47089 83.7571 7.50929 84.7827 8.77617 84.7827L30.022 84.7824ZM38.1943 78.3389H64.653C68.2668 74.2885 73.5107 71.709 79.3569 71.709C85.2031 71.709 90.4576 74.2781 94.0607 78.3389H150.279V21.0724C150.279 17.7678 147.59 15.0848 144.277 15.0848H53.1759L38.1813 78.3474L38.1943 78.3389ZM54.3623 91.2465H59.6687C59.679 88.9778 60.0944 86.8127 60.8213 84.7927H49.9803L52.2337 89.8585C52.6075 90.6976 53.4382 91.2362 54.3624 91.2362L54.3623 91.2465ZM92.5867 91.3605C92.5867 84.0883 86.6572 78.1627 79.3571 78.1627C72.0674 78.1627 66.1276 84.0779 66.1276 91.3605C66.1276 98.6327 72.0571 104.558 79.3571 104.558C86.6469 104.558 92.5867 98.643 92.5867 91.3605ZM189.595 91.3605C189.595 84.0883 183.655 78.1627 176.365 78.1627C169.076 78.1627 163.136 84.0779 163.136 91.3605C163.136 98.6327 169.076 104.558 176.365 104.558C183.655 104.558 189.595 98.643 189.595 91.3605ZM207.788 84.7926H194.901C195.628 86.8127 196.044 88.9777 196.054 91.2464H203.416C204.33 91.2464 205.15 90.7078 205.524 89.879L207.788 84.8029L207.788 84.7926ZM79.3662 88.1386C77.5801 88.1386 76.1368 89.5785 76.1368 91.3602C76.1368 93.1419 77.5802 94.5818 79.3662 94.5818C81.1521 94.5818 82.5955 93.1419 82.5955 91.3602C82.5955 89.5785 81.1521 88.1386 79.3662 88.1386ZM176.374 88.1386C174.588 88.1386 173.145 89.5785 173.145 91.3602C173.145 93.1419 174.589 94.5818 176.374 94.5818C178.16 94.5818 179.604 93.1419 179.604 91.3602C179.604 89.5785 178.16 88.1386 176.374 88.1386Z" fill="#16A2FF"/>
</svg>
