<svg width="99" height="172" viewBox="0 0 99 172" fill="#16A2FF" xmlns="http://www.w3.org/2000/svg">
<path d="M1.91998 127.189C0.861873 127.189 0 126.337 0 125.282V10.744C0 4.81971 4.77878 0 10.6503 0H74.2981C80.2158 0 85.0292 4.81971 85.0292 10.744V105.09C85.0292 106.141 84.1673 106.997 83.1092 106.997C82.0511 106.997 81.1892 106.145 81.1892 105.09V10.744C81.1892 6.92189 78.0957 3.81067 74.2942 3.81067H10.6503C6.89114 3.81067 3.83611 6.92189 3.83611 10.744V125.282C3.83611 126.333 2.97423 127.189 1.91613 127.189H1.91998Z" fill="#16A2FF"/>
<path d="M27.7415 117.512H13.159C9.0035 117.512 5.62141 114.125 5.62141 109.967V21.2625C5.62141 17.1041 9.0035 13.7176 13.159 13.7176H28.6534C29.7115 13.7176 30.5734 14.57 30.5734 15.6249V17.299L54.4789 17.2226L54.3827 15.6211C54.3827 14.57 55.2445 13.7138 56.3026 13.7138H71.7971C75.9257 13.7138 79.4116 17.169 79.4116 21.2587V97.5409C79.4116 98.592 78.5497 99.4482 77.4916 99.4482C76.4335 99.4482 75.5717 98.5959 75.5717 97.5409V21.2625C75.5717 19.2406 73.8402 17.5283 71.7933 17.5283H58.2111C58.0956 19.512 56.495 21.0332 54.475 21.0332H30.4734C28.488 21.0332 26.8566 19.4814 26.7373 17.5283H13.1551C11.1466 17.5283 9.45367 19.2368 9.45367 21.2625V109.967C9.45367 112.027 11.1159 113.701 13.1551 113.701H27.7377C28.7958 113.701 29.6577 114.553 29.6577 115.608C29.6577 116.663 28.7958 117.515 27.7377 117.515L27.7415 117.512Z" fill="#16A2FF"/>
<path d="M55.6947 92.7442C55.0329 92.7442 54.3904 92.404 54.0325 91.7963C53.5016 90.8866 53.8132 89.7208 54.729 89.1934C62.5474 84.6795 67.2184 76.6071 67.2184 67.5983C67.2184 53.8998 56.118 42.7544 42.4742 42.7544C28.8304 42.7544 17.8069 53.8998 17.8069 67.5983C17.8069 76.6071 22.478 84.6795 30.2964 89.1934C31.2121 89.7208 31.5238 90.8866 30.9928 91.7963C30.4657 92.7059 29.2883 93.0155 28.3726 92.4881C19.3537 87.2823 13.9708 77.9792 13.9708 67.5983C13.9708 51.7976 26.7565 38.9438 42.4742 38.9438C58.1918 38.9438 71.0545 51.7976 71.0545 67.5983C71.0545 77.9792 65.6717 87.2823 56.6528 92.4881C56.3527 92.6639 56.0179 92.748 55.6947 92.748V92.7442ZM55.6909 79.94C55.2715 79.94 54.8444 79.8024 54.4904 79.5196C53.667 78.8622 53.5323 77.662 54.198 76.8402C56.2757 74.2679 57.4223 70.9847 57.4223 67.5945C57.4223 59.3578 50.7159 52.6576 42.478 52.6576C34.2402 52.6576 27.6146 59.3578 27.6146 67.5945C27.6146 70.9886 28.7573 74.2718 30.8351 76.8402C31.4969 77.662 31.366 78.8583 30.5426 79.5196C29.7154 80.1732 28.5072 80.0508 27.8493 79.2291C25.2252 75.9841 23.7785 71.8524 23.7785 67.5945C23.7785 57.2594 32.1702 48.8469 42.4819 48.8469C52.7936 48.8469 61.2661 57.2556 61.2661 67.5945C61.2661 71.8485 59.8194 75.9803 57.1953 79.2291C56.8182 79.6992 56.2603 79.94 55.7024 79.94H55.6909Z" fill="#16A2FF"/>
<path d="M85.9988 171.996H44.9098C41.4469 171.996 33.4861 165.044 16.9604 149.453C12.9166 145.639 9.42674 142.348 7.526 140.765C4.1747 137.972 2.74337 134.275 3.50136 130.365C4.30937 126.192 7.59141 122.492 11.6699 121.158C15.3021 119.969 19.0574 120.825 21.9816 123.501C24.1748 125.473 26.3602 127.457 28.5419 129.441C29.6615 130.457 30.7812 131.47 31.9009 132.483V72.1658C31.9009 66.4096 36.5757 61.7237 42.3241 61.7237C48.0725 61.7237 52.7474 66.4058 52.7474 72.1658V98.4047C54.2365 97.5945 55.9371 97.1587 57.7417 97.1587C62.4858 97.1587 66.5028 100.35 67.7571 104.704C69.3693 103.721 71.2315 103.182 73.1592 103.182C77.9033 103.182 81.9164 106.374 83.1746 110.723C84.7868 109.741 86.6491 109.202 88.5767 109.202C94.3251 109.202 99 113.884 99 119.644V158.967C99 166.152 93.1631 172 85.9949 172L85.9988 171.996ZM14.925 124.437C14.1555 124.437 13.4591 124.583 12.8704 124.774C10.1155 125.676 7.81073 128.267 7.26436 131.08C6.92192 132.846 7.11815 135.449 9.9885 137.842C11.9816 139.5 15.5099 142.829 19.5999 146.686C27.4068 154.051 41.9432 167.761 44.9598 168.185H85.9988C91.0546 168.185 95.1677 164.046 95.1677 158.963V119.641C95.1677 115.987 92.2128 113.013 88.5806 113.013C86.4721 113.013 84.4713 114.049 83.2362 115.788C82.7552 116.468 81.8818 116.755 81.0892 116.503C80.2927 116.25 79.7502 115.516 79.7502 114.687V113.621C79.7502 109.967 76.7952 106.993 73.163 106.993C71.0545 106.993 69.0538 108.029 67.8187 109.768C67.3377 110.448 66.4643 110.731 65.6717 110.483C64.8752 110.23 64.3327 109.497 64.3327 108.667V107.601C64.3327 103.947 61.3777 100.973 57.7455 100.973C55.5601 100.973 53.6208 101.975 52.4165 103.725C51.9433 104.413 51.0737 104.715 50.2657 104.47C49.4654 104.226 48.9152 103.488 48.9152 102.651V72.1696C48.9152 68.5156 45.9602 65.542 42.328 65.542C38.6958 65.542 35.7408 68.5156 35.7408 72.1696V136.79C35.7408 137.543 35.2945 138.228 34.5981 138.533C33.9093 138.839 33.0975 138.713 32.5319 138.201C30.3272 136.217 28.1417 134.237 25.9601 132.25C23.7746 130.27 21.593 128.29 19.396 126.31C17.8377 124.885 16.2756 124.433 14.9289 124.433L14.925 124.437Z" fill="#16A2FF"/>
</svg>
